<svg width="6100" height="631" xmlns="http://www.w3.org/2000/svg" preserveAspectRatio="xMidYMid meet">

 <g>
  <title>background</title>
  <rect fill="#212121" id="canvas_background" height="633" width="6102" y="-1" x="-1"/>
 </g>
 <g>
  <title>Layer 1</title>
  <g id="svg_1" fill="#000000" transform="translate(0,631) scale(0.10000000149011612,-0.10000000149011612) ">
   <path fill="#ffffff" id="svg_2" d="m5650,6319c-297,-38 -655,-166 -925,-329c-278,-169 -546,-479 -689,-797c-206,-460 -207,-942 0,-1456c144,-358 251,-501 861,-1144c95,-99 177,-192 182,-205c10,-27 -2,-65 -27,-84c-14,-11 -474,-13 -2524,-14l-2508,0l0,-1105l0,-1105l3102,3c2927,2 3109,3 3208,20c215,37 386,90 565,177c554,268 922,771 1032,1413c25,141 24,519 0,662c-66,380 -195,660 -441,959c-99,120 -244,279 -583,639c-160,169 -253,275 -253,288c0,11 5,29 10,40c11,19 37,19 1465,19l1455,0l0,-2110l0,-2110l1110,0l1110,0l0,2105l0,2105l1350,0l1350,0l0,1020l0,1020l-4392,-1c-2416,-1 -4422,-5 -4458,-10z"/>
   <path fill="#ffffff" id="svg_3" d="m15514,6315c-12,-8 -26,-27 -32,-42c-6,-15 -122,-395 -257,-843c-136,-448 -282,-932 -325,-1075c-879,-2904 -1261,-4173 -1267,-4209c-4,-27 -1,-36 18,-50c21,-15 123,-16 1141,-16l1118,0l14,23c7,12 71,206 141,432c70,226 131,418 136,428c9,16 70,17 1063,17c899,0 1055,-2 1065,-14c7,-8 73,-205 147,-438c75,-233 140,-429 146,-435c8,-10 243,-13 1114,-13c1091,0 1104,0 1124,20c11,11 20,24 20,28c0,4 -33,116 -74,248c-41,131 -239,770 -440,1419c-1223,3951 -1395,4500 -1417,4518c-20,16 -117,17 -1718,17c-1471,0 -1699,-2 -1717,-15zm1800,-1972c21,-66 439,-1421 465,-1509c25,-86 26,-102 4,-126c-15,-17 -44,-18 -494,-18c-519,0 -509,-1 -509,55c0,23 54,203 285,950c189,613 216,695 225,695c5,0 15,-21 24,-47z"/>
   <path fill="#ffffff" id="svg_4" d="m21290,3217c0,-2408 3,-3116 12,-3125c9,-9 297,-12 1235,-12l1223,0l0,874c0,621 3,877 11,882c6,3 307,-289 707,-688c603,-601 710,-703 791,-757c231,-153 516,-253 844,-296c103,-13 362,-15 2003,-15l1884,0l0,1105l0,1104l-1577,4c-1466,3 -1583,4 -1643,20c-115,31 -190,90 -190,148c0,32 17,47 145,126c242,149 513,382 639,550c191,254 304,545 346,893c13,107 13,399 0,511c-66,580 -375,1068 -886,1403c-261,170 -575,292 -925,358l-124,23l-2247,3l-2248,2l0,-3113zm3958,1314c74,-27 152,-83 191,-137c50,-70 66,-128 66,-244c0,-93 -3,-112 -27,-162c-35,-75 -104,-142 -186,-181l-67,-32l-704,-3c-518,-2 -707,0 -717,9c-19,16 -21,748 -2,767c10,10 165,12 698,10l685,-3l63,-24z"/>
   <path fill="#ffffff" id="svg_5" d="m30212,6318c-7,-7 -12,-18 -12,-24c0,-7 108,-361 239,-786c132,-425 364,-1176 516,-1668c350,-1132 734,-2374 971,-3139c101,-326 189,-600 195,-607c17,-20 2071,-21 2088,-1c9,11 695,2204 716,2289c8,32 32,55 44,42c5,-5 165,-529 356,-1164c192,-635 353,-1161 358,-1167c7,-10 231,-13 1058,-13l1049,0l10,23c5,12 232,753 504,1647c1179,3875 1356,4457 1367,4501c23,87 147,79 -1173,77l-1173,-3l-243,-815c-134,-448 -248,-819 -253,-825c-6,-6 -14,-4 -23,5c-7,8 -122,366 -256,795c-133,429 -248,795 -256,813l-13,32l-1284,0c-1016,0 -1287,-3 -1294,-12c-6,-7 -111,-374 -234,-816c-123,-442 -227,-808 -230,-814c-4,-6 -13,-9 -21,-6c-8,4 -106,319 -252,814c-131,445 -243,815 -249,822c-14,17 -2487,18 -2505,0z"/>
   <path fill="#ffffff" id="svg_6" d="m40765,6308c-22,-20 -53,-111 -206,-618c-99,-327 -252,-833 -341,-1125c-628,-2074 -1280,-4234 -1320,-4369l-23,-78l24,-19c22,-18 59,-19 1141,-19c1051,0 1118,1 1132,18c9,9 73,201 143,427c70,226 133,420 140,431l14,21l1036,8c1014,7 1038,7 1063,-12c22,-16 46,-84 163,-447c75,-236 143,-432 150,-437c8,-5 509,-9 1115,-9c1083,0 1101,0 1119,20c12,13 16,28 12,47c-6,29 -226,741 -952,3083c-234,756 -543,1753 -686,2215c-216,697 -264,844 -285,863l-25,22l-1694,0l-1694,0l-26,-22zm2028,-2698c277,-898 264,-851 251,-887l-9,-28l-487,-3l-487,-2l-17,26c-21,31 -38,-33 192,714c235,758 296,954 302,964c2,5 8,2 12,-5c4,-8 114,-358 243,-779z"/>
   <path fill="#ffffff" id="svg_7" d="m46660,3221c0,-2814 1,-3111 16,-3125c14,-14 140,-16 1235,-16l1219,0l0,874c0,623 3,877 11,882c6,3 301,-282 697,-678c397,-396 717,-706 757,-735c216,-156 495,-265 823,-320c101,-17 247,-18 2647,-18c2823,0 2616,-5 2884,66c756,200 1292,820 1390,1609c16,124 13,411 -4,547c-49,375 -193,702 -440,998c-91,109 -359,403 -615,675c-116,124 -216,236 -221,249c-7,17 -5,30 6,47l15,24l1550,0l1550,0l0,1015l0,1015l-2072,-3c-2248,-4 -2085,0 -2303,-56c-282,-73 -575,-203 -776,-347c-170,-121 -373,-348 -497,-555c-326,-543 -329,-1177 -11,-1811c66,-132 137,-246 207,-333c98,-122 351,-398 625,-682c110,-115 137,-149 137,-171c0,-36 -31,-69 -72,-77c-18,-3 -746,-4 -1618,-3c-1472,4 -1590,5 -1650,21c-82,23 -146,60 -171,100c-38,63 -25,84 97,155c78,45 270,183 378,271c465,377 684,921 645,1597c-29,495 -229,926 -587,1264c-328,311 -730,507 -1233,602l-124,23l-2247,3l-2248,2l0,-3109zm3963,1308c87,-34 142,-73 184,-129c82,-111 97,-296 35,-423c-39,-78 -91,-127 -182,-171l-65,-31l-698,-3c-475,-2 -704,1 -717,8c-19,10 -20,23 -20,383c0,282 3,376 12,385c10,10 165,12 698,10l685,-3l68,-26z"/>
  </g>
 </g>
</svg>